<?xml version="1.0" encoding="UTF-8"?>
<svg id="Camada_1" data-name="Camada 1" xmlns="http://www.w3.org/2000/svg" viewBox="0 0 857.45 266.38">
  <defs>
    <style>
      .cls-1 {
        fill: #065037;
      }
    </style>
  </defs>
  <g>
    <path class="cls-1" d="M377.88,107.31l-24.36,24.74v34.45h-19.03V33.28h19.03v74.41l72.32-74.41h21.69l-56.9,59.95,60.52,73.27h-22.27l-51-59.18Z"/>
    <path class="cls-1" d="M482.74,159.17c-10.78-5.9-19.25-14.05-25.41-24.45-6.15-10.4-9.23-22.01-9.23-34.83s3.07-24.42,9.23-34.83c6.15-10.4,14.62-18.55,25.41-24.45,10.78-5.9,22.9-8.85,36.35-8.85s25.37,2.95,36.16,8.85c10.78,5.9,19.22,14.02,25.31,24.36,6.09,10.34,9.13,21.98,9.13,34.92s-3.05,24.58-9.13,34.92c-6.09,10.34-14.53,18.46-25.31,24.36-10.78,5.9-22.84,8.85-36.16,8.85s-25.57-2.95-36.35-8.85ZM545.44,144.42c7.8-4.44,13.95-10.56,18.46-18.36,4.5-7.8,6.76-16.52,6.76-26.17s-2.25-18.36-6.76-26.17c-4.51-7.8-10.66-13.92-18.46-18.36-7.8-4.44-16.59-6.66-26.36-6.66s-18.62,2.22-26.55,6.66c-7.93,4.44-14.15,10.56-18.65,18.36-4.5,7.8-6.76,16.53-6.76,26.17s2.25,18.36,6.76,26.17c4.5,7.8,10.72,13.93,18.65,18.36,7.93,4.44,16.78,6.66,26.55,6.66s18.55-2.22,26.36-6.66Z"/>
    <path class="cls-1" d="M730.23,65.16c-6.02-10.09-14.5-17.92-25.4-23.5-10.91-5.58-23.41-8.37-37.49-8.37h-56.14v16.55h55c10.79,0,20.27,2.1,28.45,6.28,8.19,4.19,14.5,10.06,18.94,17.61,4.44,7.55,6.66,16.27,6.66,26.17s-2.22,18.62-6.66,26.17c-4.44,7.55-10.75,13.41-18.94,17.6-8.18,4.18-17.67,6.28-28.45,6.28h-55v16.55h56.14c14.08,0,26.58-2.79,37.49-8.37,10.91-5.58,19.38-13.41,25.4-23.5,6.02-10.09,9.04-21.66,9.04-34.73s-3.02-24.64-9.04-34.73Z"/>
    <path class="cls-1" d="M857.45,149.94v16.56h-96.67V33.28h94.01v16.56h-74.98v40.92h66.8v16.18h-66.8v43.01h77.64Z"/>
    <rect class="cls-1" x="611.19" y="70.77" width="19.03" height="58.24"/>
  </g>
  <g>
    <g>
      <path class="cls-1" d="M171.95,182.69l-22.87-25.85-20.84-23.56,57.88-66.69h-27.41l-41.4,48.6-1.79,2.1-8.55,10.04v12.84l42.11,48.69,9.44,10.91h28.56l-15.13-17.1Z"/>
      <path class="cls-1" d="M79.32,66.6v133.19h21.85V66.6h-21.85Z"/>
    </g>
    <path class="cls-1" d="M33.24,244.06c-6.03,0-10.92-4.9-10.92-10.91v-113.32H0v113.32c0,18.35,14.88,33.23,33.24,33.23h113.32v-22.32H33.24Z"/>
    <path class="cls-1" d="M233.14,22.32c6.03,0,10.92,4.9,10.92,10.91v113.32h22.32V33.23c0-18.35-14.88-33.23-33.24-33.23h-113.32v22.32h113.32Z"/>
  </g>
  <g>
    <path class="cls-1" d="M433.94,202.87c2.47,2.06,3.71,4.9,3.71,8.51s-1.24,6.45-3.71,8.51c-2.47,2.06-5.87,3.09-10.18,3.09h-8.23v10.08h-4.76v-33.29h12.99c4.31,0,7.71,1.03,10.18,3.09ZM430.52,216.93c1.59-1.28,2.38-3.13,2.38-5.54s-.79-4.26-2.38-5.54c-1.59-1.28-3.88-1.93-6.9-1.93h-8.09v14.94h8.09c3.01,0,5.31-.64,6.9-1.93Z"/>
    <path class="cls-1" d="M473.56,228.94v4.14h-24.16v-33.29h23.5v4.14h-18.74v10.23h16.7v4.04h-16.7v10.75h19.41Z"/>
    <path class="cls-1" d="M508.29,233.08l-7.18-10.23c-.89.06-1.59.1-2.09.1h-8.23v10.13h-4.76v-33.29h12.99c4.31,0,7.71,1.03,10.18,3.09,2.47,2.06,3.71,4.9,3.71,8.51,0,2.57-.63,4.76-1.9,6.56-1.27,1.81-3.08,3.12-5.42,3.95l7.9,11.18h-5.18ZM505.76,216.95c1.59-1.3,2.38-3.15,2.38-5.57s-.79-4.26-2.38-5.54c-1.59-1.28-3.88-1.93-6.9-1.93h-8.09v14.98h8.09c3.01,0,5.31-.65,6.9-1.95Z"/>
    <path class="cls-1" d="M530.12,203.92v11.61h16.7v4.09h-16.7v13.46h-4.76v-33.29h23.5v4.14h-18.74Z"/>
    <path class="cls-1" d="M563.74,229.65c-2.47-2.54-3.71-6.18-3.71-10.94v-18.93h4.76v18.74c0,7.13,3.12,10.7,9.37,10.7,3.04,0,5.37-.88,6.99-2.64s2.43-4.45,2.43-8.06v-18.74h4.61v18.93c0,4.79-1.24,8.44-3.71,10.96-2.47,2.52-5.93,3.78-10.37,3.78s-7.9-1.27-10.37-3.81Z"/>
    <path class="cls-1" d="M633.57,233.08l-.05-24.26-12.03,20.21h-2.19l-12.03-20.07v24.12h-4.57v-33.29h3.9l13.89,23.4,13.7-23.4h3.9l.05,33.29h-4.57Z"/>
    <path class="cls-1" d="M674.09,224.75h-17.69l-3.66,8.32h-4.9l15.08-33.29h4.71l15.13,33.29h-4.99l-3.66-8.32ZM672.43,220.95l-7.18-16.31-7.18,16.31h14.36Z"/>
    <path class="cls-1" d="M714.71,233.08l-7.18-10.23c-.89.06-1.59.1-2.09.1h-8.23v10.13h-4.76v-33.29h12.99c4.31,0,7.71,1.03,10.18,3.09,2.47,2.06,3.71,4.9,3.71,8.51,0,2.57-.63,4.76-1.9,6.56-1.27,1.81-3.08,3.12-5.42,3.95l7.9,11.18h-5.18ZM712.19,216.95c1.59-1.3,2.38-3.15,2.38-5.57s-.79-4.26-2.38-5.54c-1.59-1.28-3.88-1.93-6.9-1.93h-8.09v14.98h8.09c3.01,0,5.31-.65,6.9-1.95Z"/>
    <path class="cls-1" d="M731.79,199.78h4.76v33.29h-4.76v-33.29Z"/>
    <path class="cls-1" d="M772.5,224.75h-17.69l-3.66,8.32h-4.9l15.08-33.29h4.71l15.13,33.29h-4.99l-3.66-8.32ZM770.84,220.95l-7.18-16.31-7.18,16.31h14.36Z"/>
  </g>
</svg>